<svg version="1.2" xmlns="http://www.w3.org/2000/svg" viewBox="0 0 1920 1920" width="1920" height="1920">
	<title>Logos</title>
	<style>
		.s0 { fill: #5865f2 } 
	</style>
	<path id="Discord-Symbol-Blurple" class="s0" d="m1203.3 305.1c-16.9 30-32.1 61-45.9 92.7-130.9-19.6-264.3-19.6-395.6 0-13.4-31.7-28.9-62.7-45.8-92.7-123 21-243 57.9-356.7 109.9-225.4 334-286.4 659.3-256.1 980.1 132 97.6 279.9 172 437.4 219.6 35.5-47.6 66.8-98.3 93.7-151-51-18.9-100.3-42.7-147.5-70.3 12.4-8.9 24.5-18.3 36.2-27.2 276.7 130.3 597.2 130.3 874.3 0 11.7 9.6 23.8 18.9 36.2 27.2-47.2 27.9-96.5 51.4-147.9 70.7 26.9 52.7 58.3 103.3 93.8 150.9 157.5-47.6 305.3-121.7 437.3-219.2 35.8-372.2-61.3-694.7-256.8-980.4-113.3-52.1-233.3-88.9-356.3-109.6zm-530.4 892.6c-85.1 0-155.7-77.2-155.7-172.7 0-95.5 67.9-173 155.4-173 87.5 0 157.1 77.9 155.8 173-1.4 95.1-68.6 172.7-155.5 172.7zm574.2 0c-85.5 0-155.4-77.2-155.4-172.7 0-95.5 67.9-173 155.4-173 87.5 0 156.8 77.9 155.4 173-1.4 95.1-68.6 172.7-155.4 172.7z"/>
</svg>