<svg xmlns="http://www.w3.org/2000/svg" fill="#000000" viewBox="0 0 24 24"><path d="M0 0v24h24V0H0zm14.2 5h1.1v4h-1.1V5zm-4.7 6.5H8.4l3-3h1.1l-3 3zm-3.5 0v1.1l2.1-.1v1.5h-3V9.4c0-.6.3-.9.8-.9h1.4v1.1H6.8c-.1 0-.2 0-.2.2v1.7h1.4zm11.5 1H13v-1.1h4.5v1.1zm.9-1.9c0 .2-.1.2-.2.2h-.9v-.9h-1.1v1.9h-1.5V9.5c0-.6.3-.9.9-.9h1c.6 0 .9.3.9.9v.2zm-.5 4.3H10v-1.1h7.9v1.1zM7.3 16h1.5c.6 0 .9.3.9.9v.9c0 .6-.3.9-.9.9H7.3c-.6 0-.9-.3-.9-.9v-.9c0-.6.3-.9.9-.9zm0 1.9h1.4c.1 0 .2 0 .2-.2v-.6c0-.1 0-.2-.2-.2H7.4c-.1 0-.2 0-.2.2v.6c.1.1.1.2.1.2zm13.5-1.9c.6 0 .9.3.9.9v.9c0 .6-.3.9-.9.9h-5.8c-.6 0-.9-.3-.9-.9v-.9c0-.6.3-.9.9-.9h5.8zm0 1.9c.1 0 .2 0 .2-.2v-.6c0-.1 0-.2-.2-.2h-5.7c-.1 0-.2 0-.2.2v.6c0 .1 0 .2.2.2h5.7z"/></svg>