<svg xmlns="http://www.w3.org/2000/svg" fill="#ED8B00" viewBox="0 0 24 24"><path d="M8.851 18.56s-.917.534.653.714c1.902.218 2.874.187 4.969-.211 0 0 .552.346 1.321.646-4.699 2.013-10.633-.118-6.943-1.149M8.276 15.933s-1.028.761.542.924c2.032.209 3.636.227 6.413-.308 0 0 .384.389.987.602-5.679 1.661-12.007.13-7.942-1.218M13.116 11.475c1.158 1.333-.304 2.533-.304 2.533s2.939-1.518 1.589-3.418c-1.261-1.772-2.228-2.652 3.007-5.688 0-.001-8.216 2.051-4.292 6.573M19.33 20.504s.679.559-.747.991c-2.712.822-11.288 1.069-13.669.033-.856-.373.75-.89 1.254-.998.527-.114.828-.93.828-.93-3.514 2.482-12.016 1.25-3.406-3.97 9.272 3.9 21.992 1.9 15.74 4.874"></path><path d="M9.292 13.21s-3.707 2.537-1.312 3.456c.401.184.783.347 1.183.325 1.123-.06 2.244-.25 3.322-.604.824-.312 2.458-.963 2.458-.963s-.433.186-.748.402c-3.019 2.035-11.093.718-8.988-1.05 2.124-1.79 4.085-1.566 4.085-1.566M16.714 17.495c2.312-2.103 1.693-3.908 1.693-3.908s.45 1.673-1.302 3.661c-3.062 2.13-5.129 1.691-11.477 4.683 0 0 .829-.469 2.004-1.086 5.185-2.116 9.063-9.9 9.082-3.35"></path><path d="M14.148 0s1.909 1.91-1.808 4.847c-1.67 1.326-1.318 3.129.513 4.291-6.611-3.747.447-11.7 1.295-9.138M11.039 21.062c-.001-.002-4.823-.168-5.359-3.944a.7.7 0 0 1 .042-.163c.116-.272.611-.473.963-.178.18.152.211.447.211.447s-.156.975 1.89 1.014c.95.019 2.072-.018 3.102-.055 0 0 .411.267.507.477.226.493-.334.638-.336.639 3.824.26 6.694-1.655 6.694-1.655-.701.51-1.516.89-2.383 1.122-1.232.392-2.52.553-3.809.48-1.414-.071-2.884-.62-4.156-1.288 0 0-.446.188-.867.422 1.097.84 2.605 1.171 2.605 1.171-2.067.149-4.25.124-5.229-.149-1.386-.386-2.082-1.031-2.082-1.031s.611.643 2.031 1.357c1.861.935 3.99.977 6.176.76z"/></svg>