<svg xmlns="http://www.w3.org/2000/svg" width="64" height="32" fill="none">
    <path fill="#fff" fill-rule="evenodd" d="M63.658 20.06H64v-1.677h-.514l-.418 1.139-.457-1.14h-.494v1.678h.323v-1.272h.02l.475 1.272h.247l.475-1.272zm-2.765 0h.361v-1.392h.476v-.285h-1.331v.285h.494zm-29.996 6.97q.001 3.302-2.232 4.962l-1.078-.911c.475-.55.793-1.216.951-1.988q.163-.788.165-2.184V14.774h2.194zm9.84 1.418h-1.623l-.165-1.096q-1.502 1.3-3.126 1.298c-2.029 0-3.043-.93-3.043-2.798q0-1.603 1.236-2.494 1.34-.95 3.919-.95h.729v-.911q-.002-1.804-2.086-1.804-1.362 0-2.961.589l-.305-1.279c1.256-.55 2.537-.83 3.836-.83 2.397 0 3.589 1.02 3.589 3.058zm-2.073-2.33v-2.393h-.869q-2.941 0-2.942 1.823c0 1.051.52 1.583 1.56 1.583q1.072.001 2.25-1.013m12.218-7.754c-.66 3.728-1.706 7.09-3.126 10.09H45.18l-3.106-10.09h2.25l1.928 6.197.425 1.867c1.002-2.753 1.667-5.444 2.01-8.064zm8.56 10.084h-1.624l-.165-1.096c-1.002.868-2.041 1.298-3.126 1.298-2.029 0-3.043-.93-3.043-2.798q0-1.603 1.236-2.494 1.34-.95 3.919-.95h.729v-.911q0-1.804-2.093-1.804-1.36 0-2.96.589l-.305-1.279c1.256-.55 2.536-.83 3.836-.83 2.397 0 3.589 1.02 3.589 3.058v7.21zm-2.068-2.33v-2.393H56.5q-2.94 0-2.942 1.823c0 1.051.52 1.583 1.56 1.583q1.073.001 2.25-1.013z" clip-rule="evenodd"/>
    <path fill="#fff" d="M3.005 19.028c0-.886 3.367-1.38 4.933-1.5l.152.089c-.602.107-3.018.531-3.018 1.088 0 .602 3.703 1 5.859 1 3.652 0 6.137-.55 6.803-.734l.932.545c-.64.31-3.386 1.133-7.735 1.133-4.838 0-7.92-.943-7.92-1.614zm7.368 12.439c-1.915.019-4.248-.14-6.214-.468l-.184.107c1.96.576 4.686.918 7.679.893 5.884-.051 10.652-1.507 10.747-3.26l-.07-.038c-.393.48-2.942 2.696-11.958 2.772zm.5-1.127c4.813-.044 10.203-.981 10.19-2.564 0-.284-.19-.48-.349-.6l-.076.043c-.444 1.222-4.21 2.127-9.764 2.178-3.589.032-8.553-.83-8.56-1.817-.006-.994 2.353-1.538 2.353-1.538l-.165-.095c-1.598.215-4.515.969-4.502 2.064.013 1.582 6.715 2.36 10.874 2.33m10.85-10.888c-.096 1.855-1.814 3.007-3.532 3.988l.158.089c1.832-.513 5.098-2.013 4.825-4.31-.133-1.147-1.186-1.97-2.555-1.97a3.8 3.8 0 0 0-1.116.171l-.063.165c1.223-.24 2.346.652 2.282 1.867M7.576 24.966c-.558.114-1.775.392-1.775.981 0 .817 2.605 1.443 5.123 1.443 3.461 0 4.875-.886 4.945-.937l-1.44-.829c-.614.146-1.641.374-3.5.374-2.072 0-3.423-.355-3.423-.74 0-.083.05-.178.146-.254l-.07-.044zm8.502-2.76c-.799.228-2.587.589-5.154.589-2.568 0-4.572-.43-4.578-.937 0-.336.406-.481.406-.481l-.07-.045c-1.205.216-2.327.545-2.32 1.032.012.893 3.43 1.564 6.562 1.564 2.662 0 5.211-.443 6.365-1.032l-1.21-.696z"/>
    <path fill="#F29111" d="M15.395 2.292c0 4.924-6.76 6.804-6.76 10.305 0 2.456 1.63 4 2.537 4.969l-.076.044c-1.141-.709-4.14-2.5-4.14-5.456 0-4.146 7.76-6.134 7.76-10.844A5.5 5.5 0 0 0 14.57.044L14.646 0c.248.31.742 1.082.742 2.292zm2.219 4.355-.083-.045c-1.47.494-5.998 2.28-5.998 5.602 0 1.88 1.84 2.925 1.84 4.685 0 .626-.356 1.221-.648 1.57l.146.082c.767-.5 2.124-1.576 2.124-2.963 0-1.177-1.63-2.589-1.63-4.101 0-2.38 3.146-4.254 4.249-4.837z"/>
</svg>
