<svg xmlns="http://www.w3.org/2000/svg" xml:space="preserve" viewBox="0 0 77.76 20.12">
    <path d="M.67 16.31c.71-.89 1.66-.68 2.59-.57.67.09 1.33.25 2.01.26.43.01.72-.16 1-.47.53-.59.92-1.29 1.48-1.85.91-.91 1.95-1.55 3.17-1.98 2.05-.72 4.16-1.29 6.18-2.11 1.71-.7 3.01-1.83 3.93-3.43.6-1.05 1.18-2.11 1.93-3.07 1.01-1.27 2.31-1.94 3.93-1.93.86.01 1.59-.36 2.35-.66h.19c.32.12.42.37.42.69 0 .87-.29 1.62-.96 2.18-.45.37-.92.71-1.39 1.05-.65.46-1.05 1.06-1.24 1.84-.37 1.6-.66 3.22-1.17 4.79-.45 1.4-1 2.76-2.04 3.86-.32.34-.69.63-1.11.85-.24.12-.37.11-.33-.21.03-.24.03-.48-.02-.74-.14.3-.27.6-.41.9-.94 1.91-2.33 3.27-4.47 3.75-.03.01-.06.02-.09.02-.24.03-.58.15-.69-.03-.14-.23.22-.37.35-.55 1.02-1.31 1.74-2.74 1.88-4.44-.15-.01-.14.12-.17.18-.04.07-.06.15-.09.23-.14.38-.26.76-.47 1.11-.22.36-.52.53-.95.55-1.1.03-2.19-.1-3.27-.25-.96-.13-1.93-.2-2.89-.13-1.1.08-2.05.57-2.93 1.17-1.02.69-2.11 1.25-3.22 1.76-.5.23-1.03.38-1.56.52H1.45c-.16-.25-.09-.5.05-.72.2-.31.41-.61.62-.91.11-.15.23-.31 0-.44-.51-.3-.9-.78-1.45-1.02zm76.52-3.97c-.32 1.16-.84 1.57-2.05 1.68-1.37.12-2.74.03-4.11.06-.32.01-.47-.12-.46-.46.01-2.06.01-4.13 0-6.19 0-.26.07-.45.37-.44 1.47.03 2.94-.12 4.4.09 1.19.17 1.79 1.01 1.56 2.17-.1.51-.41.86-1 1.09.81.26 1.15.8 1.29 1.5zm-4.03 1.03c.61 0 1.22.02 1.83-.08.73-.12 1.11-.49 1.13-1.16.03-.77-.28-1.18-1.05-1.32-1.09-.19-2.18-.05-3.28-.08-.24-.01-.28.16-.28.36 0 .63.01 1.26 0 1.88-.01.29.1.41.39.4.42-.01.84 0 1.26 0m.18-3.36v-.03c.5 0 1 .03 1.5-.01.79-.06 1.15-.52 1.07-1.3-.06-.6-.44-.92-1.2-.95-.94-.03-1.87-.01-2.81-.01-.26 0-.39.08-.39.36.01.52.01 1.03 0 1.55-.01.31.15.39.42.38.47 0 .94.01 1.41.01M30.9 9.37c-.29 1.15-.57 2.27-.85 3.39-.04.16-.08.31-.11.47-.22.9-.22.88-1.16.86-.42-.01-.49-.16-.39-.54.46-1.73.9-3.46 1.34-5.2l.15-.56c.21-.84.21-.82 1.06-.81.37 0 .5.2.63.49.64 1.44 1.3 2.88 1.95 4.32.05.11.07.25.25.35.32-.7.63-1.4.95-2.1.4-.88.81-1.76 1.18-2.65.24-.58.71-.37 1.12-.4.4-.03.41.3.47.56.52 2 1.03 4 1.56 5.99.11.42 0 .58-.42.54-.06-.01-.13 0-.19 0-.75 0-.75 0-.92-.72l-.84-3.48c-.04-.15-.05-.32-.18-.46-.2.16-.25.38-.34.58-.55 1.2-1.11 2.4-1.62 3.62-.19.45-.5.46-.89.48-.39.01-.61-.13-.77-.5-.54-1.26-1.11-2.5-1.68-3.75-.07-.16-.09-.35-.3-.48m13.16.04c.13-.19-.02-.5.28-.53.36-.04.74-.11 1.09.06.13.06.1.23.1.35 0 1.45 0 2.9.01 4.36 0 .31-.13.44-.43.44h-.34c-.39.03-.73-.01-.66-.56-1.73.93-3.26.76-4.16-.42-.79-1.03-.73-2.61.09-3.54.74-.83 2.59-1.25 4.02-.16m-1.53.43c-.97 0-1.63.65-1.62 1.6 0 .97.68 1.65 1.65 1.65.96 0 1.59-.63 1.6-1.61 0-1.01-.63-1.64-1.63-1.64m16.27-.45c.13-.15-.03-.46.26-.5.37-.05.74-.1 1.09.04.14.06.12.22.12.34v4.4c0 .29-.11.42-.4.42h-.39c-.37 0-.77.04-.62-.58-1.57.94-3.16.81-4.1-.28-.84-.97-.88-2.58-.09-3.54.92-1.11 2.45-1.23 4.13-.3m-1.52.45c-.99-.01-1.66.65-1.64 1.62.01.93.69 1.61 1.62 1.63.98.01 1.66-.64 1.67-1.61.01-.96-.67-1.63-1.65-1.64m4.88.66v-3c0-.29.04-.52.41-.51 1.26.04 2.52-.09 3.77.08 1.91.27 3.1 1.68 3.03 3.57-.07 1.93-1.32 3.21-3.24 3.38-1.16.1-2.32.03-3.48.06-.35.01-.49-.13-.48-.49 0-1.02-.01-2.06-.01-3.09m1.01-.01v2.37c0 .2 0 .43.27.43.98 0 1.97.14 2.94-.09 1.33-.32 1.98-1.4 1.88-3.02-.08-1.28-.88-2.16-2.14-2.37-.83-.14-1.67-.05-2.51-.09-.34-.02-.46.12-.45.45.02.77.01 1.55.01 2.32m-14.6-.87c.61-.66 1.28-1.01 2.15-.82.19.04.44.05.36.33-.09.3-.01.71-.47.8-.11.02-.22-.01-.34-.02-.98-.07-1.7.54-1.73 1.52-.03.69-.02 1.39-.01 2.08.01.4-.13.58-.55.58-.93.01-.93.02-.93-.92 0-1.26.01-2.52-.01-3.77-.01-.43.15-.6.57-.55h.15c.72 0 .72 0 .81.77m3.13 1.42c0-.56.01-1.13-.01-1.69-.01-.39.15-.53.52-.5h.15c.81-.01.82 0 .82.79v2.76c0 .25-.01.46.34.59.31.12.27.55.27.86 0 .25-.26.24-.45.27-1.01.19-1.56-.21-1.63-1.24-.04-.61 0-1.22-.01-1.84m.71-4.16c.46-.01.77.28.78.72.01.42-.32.76-.76.76s-.75-.32-.75-.76c.01-.45.28-.71.73-.72"/>
</svg>
