<svg xmlns="http://www.w3.org/2000/svg" fill="#444444" viewBox="0 0 24 24"><path d="M11.998 0a12 12 0 1 0 12.003 12 12 12 0 0 0-12.003-12zm-1.412 3.692h3.392l.067 15.352-.067.16c-.202.54-.63.97-1.183 1.183l-.159.068-2.05-.005zm8.34 14.323a.36.36 0 0 1-.506.035L14.844 15h-1.644l1.66 3.326c.118.232.046.514-.16.634-.067.037-.139.056-.21.056-.064 0-.128-.018-.186-.053l-3.073-2.03v-8.19l4.417 3.388c.116.091.13.262.027.376a.251.251 0 0 1-.367.047l-3.13-2.394.002 1.215 2.182 1.763c.12.097.135.274.03.391a.262.262 0 0 1-.372.042l-1.841-1.487v1.557l.712.595c.12.102.133.28.029.398a.264.264 0 0 1-.376.038l-.365-.304v4.582l2.894 1.913c.2.132.256.404.125.604a.444.444 0 0 1-.604.124l-2.415-1.592v1.073l1.696.882c.21.109.29.366.18.574-.11.209-.367.29-.575.18l-1.3-.676v.756c0 .236-.173.426-.385.426s-.385-.19-.385-.426V5.22c0-.58.206-1.139.585-1.585L7.845 5.57a.361.361 0 0 1-.506-.035.358.358 0 0 1 .035-.506l3.698-2.842c.584-.45 1.32-.7 2.093-.7l3.175.001a.366.366 0 0 1 .365.366.365.365 0 0 1-.365.365h-1.467c.379.446.585 1.005.585 1.585V12.8l3.438 3.21a.357.357 0 0 1 .035.505z"/></svg>