<svg version="1.2" xmlns="http://www.w3.org/2000/svg" viewBox="0 0 1783 512" width="1783" height="512">
	<title>Vulkan</title>
	<style>
		.s0 { fill: #ac162c } 
	</style>
	<g>
		<path class="s0" d="m1070.2 504.5h-69.9v-223.5c22.4 12.4 51.8 35.2 69.9 57.2z"/>
		<g>
			<path class="s0" d="m482.1 504.5h-87l-113.5-350.8h79.1l78 245.9h1l79.1-245.9h79.6z"/>
			<path class="s0" d="m832.9 504.5h-66.4v-35.4c-3.8 0.5-4.6 6.7-7.7 9.1-9.9 13.3-24.4 22.7-40.1 27.6-20.1 6.7-41.9 6.1-62.5 2.2-20.4-4-39.9-16.3-49.4-35.3-9.8-19.1-11.6-41.2-12.3-62.4 0-53.3 0-106.6 0-159.9h69.8c0.1 49.4 0 98.8 0.1 148.2 0.6 15.5 2.3 32.1 11.7 44.9 9.5 11.8 25.8 13.6 39.8 12.5 14.8-0.9 30.2-7.7 37.4-21.3 9.6-17.8 9.9-38.5 9.8-58.2v-126h69.8v254.5-0.4z"/>
		</g>
		<g>
			<path fill-rule="evenodd" class="s0" d="m1082.2 351.5v-10.4l87.7-91.1h82.5l-96.3 94.6 106.6 159.9h-84.2z"/>
			<path class="s0" d="m1276.5 329.1c0.8-18.3 6.9-36.7 19.6-50.3 18.2-20.4 45.7-29.6 72.2-32.8 25.3-3.2 51.1-2 76.1 2.6 20.9 4.3 41.9 14.2 54.1 32.5 8.8 13.1 9.3 29.3 9 44.5 0.1 43.5-0.1 87 0.1 130.6 0.8 15 1 30.5 6.5 44.7 3.6 4.4 1.4 4.8-2.8 4.4h-65.8c-2.6-8-4.2-16.3-4.9-24.6-13.6 14.4-32.1 23.4-51.4 27.2-25.9 5.5-53.7 5.7-78.4-4.3-18-7.3-32.8-22.4-38.5-41.1-5-17-5.1-35.6-0.1-52.6 5.7-17.9 20.1-32.3 37.3-39.5 16.2-6.7 33.6-9.7 50.8-12.4 20.5-3.4 41.9-2.9 61.4-10.5 7.8-3 15.5-9.1 15.7-18.1 0.8-10.6-1.2-22.4-9.8-29.5-10.5-8.7-24.9-8.6-37.8-8.7-14.2 0.2-30.5 4.6-37.9 17.9-3.5 6.3-5.1 13.4-5.8 20.5h-69.8l0.1-0.4zm161.2 51.6c-9 7.5-21.1 8.9-32.2 11.1-17.4 2.6-35.9 3.4-51.6 12.3-10.1 5.7-16.2 17.2-15.5 28.7-0.6 11.2 5.3 22.9 15.8 27.5 12.8 5.8 27.4 5.6 41.1 4 17.3-2 32.9-14.3 38.4-30.8 5.4-15.8 3.7-32.6 4-49 0-1.2 0-3 0-3.8z"/>
			<path class="s0" d="m1544.7 250h66.4v35.4h1.5c23-38.3 62.4-42.2 77.5-42.2 12.6 0 52.3 0.1 74.1 28.8 16.1 21.6 18.5 49.7 18.7 75.8v156.3h-69.8v-143.4c0-52.4-19.7-62.4-44.7-62.4-39.9 0-54.1 24.2-54.1 72.6v133.1h-69.8v-254.5z"/>
		</g>
		<path class="s0" d="m877.6 207v297.5h69.8v-259.7c-22.4-13.7-45.8-26.6-69.8-38.5z"/>
		<path class="s0" d="m165.7 219c40.4-118.4 282-161.9 539.9-96.9 154.8 38.8 280.3 114.3 364.6 189.1-37.5-99-218.4-240.7-469.5-288.9-282-54.6-562.3-6.6-596.6 118.9-25 90.6 84.6 196 254.4 269.9-76-61.5-113.1-130.8-92.1-192.6z"/>
		<path class="s0" d="m1070.2 268.9v-114.5h-69.9v34.7c29.8 26.7 53.3 53.7 69.9 79.8z"/>
	</g>
</svg>